# The Great Editor v0.0.1
mtllib floor_1.mtl
o floor_1
v 25.50112735510847 -28.214554830451174 0
v 25.50112735510847 -28.214554830451174 -0.1
v 25.5017358351545 -25.99512318930527 0
v 25.5017358351545 -25.99512318930527 -0.1
v 32.881346041964626 -25.997146385458326 0
v 32.881346041964626 -25.997146385458326 -0.1
v 32.88073756191859 -28.21657802660423 0
v 32.88073756191859 -28.21657802660423 -0.1
vt 25.50112735510847 -28.214554830451174 0
vt 25.5017358351545 -25.99512318930527 0
vt 32.881346041964626 -25.997146385458326 0
vt 32.88073756191859 -28.21657802660423 0
vn 0 0 1
vn 0 0 -1
usemtl floor_1
s off
f 3/2/1 1/1/1 5/3/1
f 6/3/2 2/1/2 4/2/2
f 5/3/1 1/1/1 7/4/1
f 8/4/2 2/1/2 6/3/2
