# The Great Editor v0.0.1
mtllib floor_2.mtl
o floor_2
v 7.042437290015335 -19.51919626838896 0
v 7.042437290015335 -19.51919626838896 -0.1
v 7.042437290015335 -7.974589816355159 0
v 7.042437290015335 -7.974589816355159 -0.1
v 7.134488045144669 -7.367332093812184 0
v 7.134488045144669 -7.367332093812184 -0.1
v 7.650637701014453 -7.09788955214144 0
v 7.650637701014453 -7.09788955214144 -0.1
v 21.29366865642432 -7.09788955214144 0
v 21.29366865642432 -7.09788955214144 -0.1
v 21.29366865642432 -16.912939948462025 0
v 21.29366865642432 -16.912939948462025 -0.1
v 15.249372084678875 -16.912939948462025 0
v 15.249372084678875 -16.912939948462025 -0.1
v 15.249372084678875 -19.51919626838896 0
v 15.249372084678875 -19.51919626838896 -0.1
vt 7.042437290015335 -19.51919626838896 0
vt 7.042437290015335 -7.974589816355159 0
vt 7.134488045144669 -7.367332093812184 0
vt 7.650637701014453 -7.09788955214144 0
vt 21.29366865642432 -7.09788955214144 0
vt 21.29366865642432 -16.912939948462025 0
vt 15.249372084678875 -16.912939948462025 0
vt 15.249372084678875 -19.51919626838896 0
vn 0 0 1
vn 0 0 -1
usemtl floor_2
s off
f 5/3/1 3/2/1 7/4/1
f 8/4/2 4/2/2 6/3/2
f 7/4/1 3/2/1 13/7/1
f 14/7/2 4/2/2 8/4/2
f 7/4/1 13/7/1 9/5/1
f 10/5/2 14/7/2 8/4/2
f 9/5/1 13/7/1 11/6/1
f 12/6/2 14/7/2 10/5/2
f 15/8/1 13/7/1 1/1/1
f 2/1/2 14/7/2 16/8/2
f 1/1/1 13/7/1 3/2/1
f 4/2/2 14/7/2 2/1/2
