# The Great Editor v0.0.1
mtllib floor_5.mtl
o floor_5
v 21.29366865642432 -20.406432462406638 0
v 21.29366865642432 -20.406432462406638 -0.1
v 20.56058975111721 -20.406432462406638 0
v 20.56058975111721 -20.406432462406638 -0.1
v 18.81961052940602 -20.406432462406638 0
v 18.81961052940602 -20.406432462406638 -0.1
v 17.522914831849178 -20.406432462406638 0
v 17.522914831849178 -20.406432462406638 -0.1
v 16.119085363864706 -20.406432462406638 0
v 16.119085363864706 -20.406432462406638 -0.1
v 15.249372084678875 -20.406432462406638 0
v 15.249372084678875 -20.406432462406638 -0.1
v 15.249372084678875 -19.51919626838896 0
v 15.249372084678875 -19.51919626838896 -0.1
v 12.93668004044754 -19.51919626838896 0
v 12.93668004044754 -19.51919626838896 -0.1
v 9.999151906579252 -19.51919626838896 0
v 9.999151906579252 -19.51919626838896 -0.1
v 7.042437290015335 -19.51919626838896 0
v 7.042437290015335 -19.51919626838896 -0.1
v 7.042437290015335 -30.60964869360996 0
v 7.042437290015335 -30.60964869360996 -0.1
v 8.16834002022377 -31.108719052744902 0
v 8.16834002022377 -31.108719052744902 -0.1
v 9.220380337280234 -31.940502984636478 0
v 9.220380337280234 -31.940502984636478 -0.1
v 9.876214241445679 -32.49502560589753 0
v 9.876214241445679 -32.49502560589753 -0.1
v 11.54305378869427 -34.82978765045505 0
v 11.54305378869427 -34.82978765045505 -0.1
v 12.21258440160486 -36.38738624131521 0
v 12.21258440160486 -36.38738624131521 -0.1
v 12.587663502625833 -37.78101249306849 0
v 12.587663502625833 -37.78101249306849 -0.1
v 12.587663502625833 -40.03653325504781 0
v 12.587663502625833 -40.03653325504781 -0.1
v 18.444365071598668 -40.03653325504781 0
v 18.444365071598668 -40.03653325504781 -0.1
v 22.057468114949287 -40.03653325504781 0
v 22.057468114949287 -40.03653325504781 -0.1
v 25.5080405780083 -40.03653325504781 0
v 25.5080405780083 -40.03653325504781 -0.1
v 25.5080405780083 -39.371106109534544 0
v 25.5080405780083 -39.371106109534544 -0.1
v 25.5080405780083 -37.98479955638192 0
v 25.5080405780083 -37.98479955638192 -0.1
v 25.5080405780083 -37.04211110023814 0
v 25.5080405780083 -37.04211110023814 -0.1
v 25.5080405780083 -36.87575431385982 0
v 25.5080405780083 -36.87575431385982 -0.1
v 25.5080405780083 -35.4894477607072 0
v 25.5080405780083 -35.4894477607072 -0.1
v 25.5080405780083 -34.93492513944615 0
v 25.5080405780083 -34.93492513944615 -0.1
v 25.5080405780083 -25.97938480608019 0
v 25.5080405780083 -25.97938480608019 -0.1
v 24.565352121864514 -25.97938480608019 0
v 24.565352121864514 -25.97938480608019 -0.1
v 21.29366865642432 -25.97938480608019 0
v 21.29366865642432 -25.97938480608019 -0.1
v 19.044025834230364 -26.007110937143242 0
v 19.044025834230364 -26.007110937143242 -0.1
v 15.249372084678875 -26.007110937143242 0
v 15.249372084678875 -26.007110937143242 -0.1
v 15.249372084678875 -22.569070685324732 0
v 15.249372084678875 -22.569070685324732 -0.1
v 16.197661219297395 -22.569070685324732 0
v 16.197661219297395 -22.569070685324732 -0.1
v 17.635704733013675 -22.569070685324732 0
v 17.635704733013675 -22.569070685324732 -0.1
v 19.04141957791044 -22.569070685324732 0
v 19.04141957791044 -22.569070685324732 -0.1
v 21.29366865642432 -22.569070685324732 0
v 21.29366865642432 -22.569070685324732 -0.1
vt 21.29366865642432 -20.406432462406638 0
vt 20.56058975111721 -20.406432462406638 0
vt 18.81961052940602 -20.406432462406638 0
vt 17.522914831849178 -20.406432462406638 0
vt 16.119085363864706 -20.406432462406638 0
vt 15.249372084678875 -20.406432462406638 0
vt 15.249372084678875 -19.51919626838896 0
vt 12.93668004044754 -19.51919626838896 0
vt 9.999151906579252 -19.51919626838896 0
vt 7.042437290015335 -19.51919626838896 0
vt 7.042437290015335 -30.60964869360996 0
vt 8.16834002022377 -31.108719052744902 0
vt 9.220380337280234 -31.940502984636478 0
vt 9.876214241445679 -32.49502560589753 0
vt 11.54305378869427 -34.82978765045505 0
vt 12.21258440160486 -36.38738624131521 0
vt 12.587663502625833 -37.78101249306849 0
vt 12.587663502625833 -40.03653325504781 0
vt 18.444365071598668 -40.03653325504781 0
vt 22.057468114949287 -40.03653325504781 0
vt 25.5080405780083 -40.03653325504781 0
vt 25.5080405780083 -39.371106109534544 0
vt 25.5080405780083 -37.98479955638192 0
vt 25.5080405780083 -37.04211110023814 0
vt 25.5080405780083 -36.87575431385982 0
vt 25.5080405780083 -35.4894477607072 0
vt 25.5080405780083 -34.93492513944615 0
vt 25.5080405780083 -25.97938480608019 0
vt 24.565352121864514 -25.97938480608019 0
vt 21.29366865642432 -25.97938480608019 0
vt 19.044025834230364 -26.007110937143242 0
vt 15.249372084678875 -26.007110937143242 0
vt 15.249372084678875 -22.569070685324732 0
vt 16.197661219297395 -22.569070685324732 0
vt 17.635704733013675 -22.569070685324732 0
vt 19.04141957791044 -22.569070685324732 0
vt 21.29366865642432 -22.569070685324732 0
vn 0 0 1
vn 0 0 -1
usemtl floor_5
s off
f 19/10/1 21/11/1 17/9/1
f 18/9/2 22/11/2 20/10/2
f 17/9/1 21/11/1 63/32/1
f 64/32/2 22/11/2 18/9/2
f 17/9/1 63/32/1 65/33/1
f 66/33/2 64/32/2 18/9/2
f 17/9/1 65/33/1 15/8/1
f 16/8/2 66/33/2 18/9/2
f 15/8/1 65/33/1 11/6/1
f 12/6/2 66/33/2 16/8/2
f 15/8/1 11/6/1 13/7/1
f 14/7/2 12/6/2 16/8/2
f 1/1/1 3/2/1 73/37/1
f 74/37/2 4/2/2 2/1/2
f 55/28/1 57/29/1 53/27/1
f 54/27/2 58/29/2 56/28/2
f 37/19/1 39/20/1 53/27/1
f 54/27/2 40/20/2 38/19/2
f 37/19/1 53/27/1 61/31/1
f 62/31/2 54/27/2 38/19/2
f 37/19/1 61/31/1 31/16/1
f 32/16/2 62/31/2 38/19/2
f 37/19/1 31/16/1 33/17/1
f 34/17/2 32/16/2 38/19/2
f 37/19/1 33/17/1 35/18/1
f 36/18/2 34/17/2 38/19/2
f 21/11/1 23/12/1 63/32/1
f 64/32/2 24/12/2 22/11/2
f 63/32/1 23/12/1 25/13/1
f 26/13/2 24/12/2 64/32/2
f 63/32/1 25/13/1 27/14/1
f 28/14/2 26/13/2 64/32/2
f 63/32/1 27/14/1 29/15/1
f 30/15/2 28/14/2 64/32/2
f 63/32/1 29/15/1 61/31/1
f 62/31/2 30/15/2 64/32/2
f 65/33/1 67/34/1 9/5/1
f 10/5/2 68/34/2 66/33/2
f 65/33/1 9/5/1 11/6/1
f 12/6/2 10/5/2 66/33/2
f 9/5/1 67/34/1 7/4/1
f 8/4/2 68/34/2 10/5/2
f 7/4/1 67/34/1 69/35/1
f 70/35/2 68/34/2 8/4/2
f 7/4/1 69/35/1 5/3/1
f 6/3/2 70/35/2 8/4/2
f 5/3/1 69/35/1 71/36/1
f 72/36/2 70/35/2 6/3/2
f 5/3/1 71/36/1 3/2/1
f 4/2/2 72/36/2 6/3/2
f 3/2/1 71/36/1 73/37/1
f 74/37/2 72/36/2 4/2/2
f 57/29/1 59/30/1 53/27/1
f 54/27/2 60/30/2 58/29/2
f 53/27/1 59/30/1 61/31/1
f 62/31/2 60/30/2 54/27/2
f 61/31/1 29/15/1 31/16/1
f 32/16/2 30/15/2 62/31/2
f 53/27/1 39/20/1 51/26/1
f 52/26/2 40/20/2 54/27/2
f 51/26/1 39/20/1 49/25/1
f 50/25/2 40/20/2 52/26/2
f 49/25/1 39/20/1 47/24/1
f 48/24/2 40/20/2 50/25/2
f 47/24/1 39/20/1 45/23/1
f 46/23/2 40/20/2 48/24/2
f 45/23/1 39/20/1 43/22/1
f 44/22/2 40/20/2 46/23/2
f 43/22/1 39/20/1 41/21/1
f 42/21/2 40/20/2 44/22/2
