# The Great Editor v0.0.1
mtllib floor_4.mtl
o floor_4
v 15.249372084678875 -16.912939948462025 0
v 15.249372084678875 -16.912939948462025 -0.1
v 17.522914831849178 -16.936950777962625 0
v 17.522914831849178 -16.936950777962625 -0.1
v 17.522914831849178 -20.406432462406638 0
v 17.522914831849178 -20.406432462406638 -0.1
v 15.249372084678875 -20.406432462406638 0
v 15.249372084678875 -20.406432462406638 -0.1
vt 15.249372084678875 -16.912939948462025 0
vt 17.522914831849178 -16.936950777962625 0
vt 17.522914831849178 -20.406432462406638 0
vt 15.249372084678875 -20.406432462406638 0
vn 0 0 1
vn 0 0 -1
usemtl floor_4
s off
f 1/1/1 7/4/1 3/2/1
f 4/2/2 8/4/2 2/1/2
f 3/2/1 7/4/1 5/3/1
f 6/3/2 8/4/2 4/2/2
