# The Great Editor v0.0.1
mtllib floor_7.mtl
o floor_7
v 25.5080405780083 -37.04211110023814 0
v 25.5080405780083 -37.04211110023814 -0.1
v 32.883191440780266 -37.04211110023814 0
v 32.883191440780266 -37.04211110023814 -0.1
v 32.883191440780266 -34.93492513944615 0
v 32.883191440780266 -34.93492513944615 -0.1
v 29.195616009394282 -34.93492513944615 0
v 29.195616009394282 -34.93492513944615 -0.1
v 27.7261310630525 -34.93492513944615 0
v 27.7261310630525 -34.93492513944615 -0.1
v 26.339824509899874 -34.93492513944615 0
v 26.339824509899874 -34.93492513944615 -0.1
v 25.5080405780083 -34.93492513944615 0
v 25.5080405780083 -34.93492513944615 -0.1
v 25.5080405780083 -35.4894477607072 0
v 25.5080405780083 -35.4894477607072 -0.1
v 25.5080405780083 -36.87575431385982 0
v 25.5080405780083 -36.87575431385982 -0.1
vt 25.5080405780083 -37.04211110023814 0
vt 32.883191440780266 -37.04211110023814 0
vt 32.883191440780266 -34.93492513944615 0
vt 29.195616009394282 -34.93492513944615 0
vt 27.7261310630525 -34.93492513944615 0
vt 26.339824509899874 -34.93492513944615 0
vt 25.5080405780083 -34.93492513944615 0
vt 25.5080405780083 -35.4894477607072 0
vt 25.5080405780083 -36.87575431385982 0
vn 0 0 1
vn 0 0 -1
usemtl floor_7
s off
f 13/7/1 15/8/1 11/6/1
f 12/6/2 16/8/2 14/7/2
f 11/6/1 15/8/1 17/9/1
f 18/9/2 16/8/2 12/6/2
f 11/6/1 17/9/1 9/5/1
f 10/5/2 18/9/2 12/6/2
f 9/5/1 17/9/1 1/1/1
f 2/1/2 18/9/2 10/5/2
f 9/5/1 1/1/1 7/4/1
f 8/4/2 2/1/2 10/5/2
f 7/4/1 1/1/1 3/2/1
f 4/2/2 2/1/2 8/4/2
f 7/4/1 3/2/1 5/3/1
f 6/3/2 4/2/2 8/4/2
