# The Great Editor v0.0.1
mtllib floor_6.mtl
o floor_6
v 25.5080405780083 -25.97938480608019 0
v 25.5080405780083 -25.97938480608019 -0.1
v 29.195616009394282 -25.97938480608019 0
v 29.195616009394282 -25.97938480608019 -0.1
v 30.776005479988275 -25.97938480608019 0
v 30.776005479988275 -25.97938480608019 -0.1
v 32.883191440780266 -25.97938480608019 0
v 32.883191440780266 -25.97938480608019 -0.1
v 32.883191440780266 -34.93492513944615 0
v 32.883191440780266 -34.93492513944615 -0.1
v 29.195616009394282 -34.93492513944615 0
v 29.195616009394282 -34.93492513944615 -0.1
v 27.7261310630525 -34.93492513944615 0
v 27.7261310630525 -34.93492513944615 -0.1
v 26.339824509899874 -34.93492513944615 0
v 26.339824509899874 -34.93492513944615 -0.1
v 25.5080405780083 -34.93492513944615 0
v 25.5080405780083 -34.93492513944615 -0.1
vt 25.5080405780083 -25.97938480608019 0
vt 29.195616009394282 -25.97938480608019 0
vt 30.776005479988275 -25.97938480608019 0
vt 32.883191440780266 -25.97938480608019 0
vt 32.883191440780266 -34.93492513944615 0
vt 29.195616009394282 -34.93492513944615 0
vt 27.7261310630525 -34.93492513944615 0
vt 26.339824509899874 -34.93492513944615 0
vt 25.5080405780083 -34.93492513944615 0
vn 0 0 1
vn 0 0 -1
usemtl floor_6
s off
f 1/1/1 17/9/1 15/8/1
f 16/8/2 18/9/2 2/1/2
f 1/1/1 15/8/1 13/7/1
f 14/7/2 16/8/2 2/1/2
f 1/1/1 13/7/1 3/2/1
f 4/2/2 14/7/2 2/1/2
f 3/2/1 13/7/1 11/6/1
f 12/6/2 14/7/2 4/2/2
f 3/2/1 11/6/1 5/3/1
f 6/3/2 12/6/2 4/2/2
f 5/3/1 11/6/1 9/5/1
f 10/5/2 12/6/2 6/3/2
f 5/3/1 9/5/1 7/4/1
f 8/4/2 10/5/2 6/3/2
