# The Great Editor v0.0.1
mtllib floor_3.mtl
o floor_3
v 19.04141957791044 -22.569070685324732 0
v 19.04141957791044 -22.569070685324732 -0.1
v 19.044025834230364 -26.007110937143242 0
v 19.044025834230364 -26.007110937143242 -0.1
v 21.29366865642432 -25.97938480608019 0
v 21.29366865642432 -25.97938480608019 -0.1
v 21.29366865642432 -22.569070685324732 0
v 21.29366865642432 -22.569070685324732 -0.1
vt 19.04141957791044 -22.569070685324732 0
vt 19.044025834230364 -26.007110937143242 0
vt 21.29366865642432 -25.97938480608019 0
vt 21.29366865642432 -22.569070685324732 0
vn 0 0 1
vn 0 0 -1
usemtl floor_3
s off
f 1/1/1 3/2/1 5/3/1
f 6/3/2 4/2/2 2/1/2
f 1/1/1 5/3/1 7/4/1
f 8/4/2 6/3/2 2/1/2
