# The Great Editor v0.0.1
mtllib floor_1.mtl
o floor_1
v 15.242021363244811 -7.182625810380857 0
v 15.242021363244811 -7.182625810380857 -0.1
v 15.23935926304343 -16.892639240394182 0
v 15.23935926304343 -16.892639240394182 -0.1
v 21.287310485166014 -16.894297348519615 0
v 21.287310485166014 -16.894297348519615 -0.1
v 21.289972585367394 -7.18428391850629 0
v 21.289972585367394 -7.18428391850629 -0.1
vt 15.242021363244811 -7.182625810380857 0
vt 15.23935926304343 -16.892639240394182 0
vt 21.287310485166014 -16.894297348519615 0
vt 21.289972585367394 -7.18428391850629 0
vn 0 0 1
vn 0 0 -1
usemtl floor_1
s off
f 1/1/1 3/2/1 7/4/1
f 8/4/2 4/2/2 2/1/2
f 7/4/1 3/2/1 5/3/1
f 6/3/2 4/2/2 8/4/2
