# The Great Editor v0.0.1
mtllib floor_7.mtl
o floor_7
v 15.242021363244811 -7.182625810380857 0
v 15.242021363244811 -7.182625810380857 -0.1
v 15.241914879236758 -7.57102634758139 0
v 15.241914879236758 -7.57102634758139 -0.1
v 15.241458519202235 -9.235600078440818 0
v 15.241458519202235 -9.235600078440818 -0.1
v 15.240713131145847 -11.954403838844549 0
v 15.240713131145847 -11.954403838844549 -0.1
v 15.24059143513664 -12.398290167073728 0
v 15.24059143513664 -12.398290167073728 -0.1
v 15.240135075102117 -14.062863897933155 0
v 15.240135075102117 -14.062863897933155 -0.1
v 15.23935926304343 -16.892639240394182 0
v 15.23935926304343 -16.892639240394182 -0.1
v 15.23840090697093 -20.388244075198976 0
v 15.23840090697093 -20.388244075198976 -0.1
v 16.309498616987945 -20.388537727669192 0
v 16.309498616987945 -20.388537727669192 -0.1
v 17.597323826762853 -20.3888907982159 0
v 17.597323826762853 -20.3888907982159 -0.1
v 18.734005741775725 -20.389202431271478 0
v 18.734005741775725 -20.389202431271478 -0.1
v 20.67600842777839 -20.389734851311754 0
v 20.67600842777839 -20.389734851311754 -0.1
v 21.286352129093515 -20.389902183324413 0
v 21.286352129093515 -20.389902183324413 -0.1
v 21.285743649047486 -22.609333824470312 0
v 21.285743649047486 -22.609333824470312 -0.1
v 19.12179779893023 -22.60874055642543 0
v 19.12179779893023 -22.60874055642543 -0.1
v 17.901110396299984 -22.608405892400114 0
v 17.901110396299984 -22.608405892400114 -0.1
v 15.903621919268668 -22.60785826035869 0
v 15.903621919268668 -22.60785826035869 -0.1
v 15.2377924269249 -22.60767571634488 0
v 15.2377924269249 -22.60767571634488 -0.1
v 15.236864494854702 -25.992308969092377 0
v 15.236864494854702 -25.992308969092377 -0.1
v 15.236712374843195 -26.547166879378857 0
v 15.236712374843195 -26.547166879378857 -0.1
v 15.236256014808673 -28.211740610238284 0
v 15.236256014808673 -28.211740610238284 -0.1
v 15.235525838753436 -30.875058579613366 0
v 15.235525838753436 -30.875058579613366 -0.1
v 21.28347706087602 -30.8767166877388 0
v 21.28347706087602 -30.8767166877388 -0.1
v 21.893820762191144 -30.876884019751458 0
v 21.893820762191144 -30.876884019751458 -0.1
v 23.55839449305057 -30.87734037978598 0
v 23.55839449305057 -30.87734037978598 -0.1
v 25.500397179053234 -30.877872799826257 0
v 25.500397179053234 -30.877872799826257 -0.1
v 25.49927909696865 -34.95607844043186 0
v 25.49927909696865 -34.95607844043186 -0.1
v 25.499126976957147 -35.51093635071833 0
v 25.499126976957147 -35.51093635071833 -0.1
v 25.498746676928373 -36.89808112643452 0
v 25.498746676928373 -36.89808112643452 -0.1
v 25.49870104092492 -37.06453849952047 0
v 25.49870104092492 -37.06453849952047 -0.1
v 25.498320740896155 -38.45168327523665 0
v 25.498320740896155 -38.45168327523665 -0.1
v 25.497940440867385 -39.83882805095284 0
v 25.497940440867385 -39.83882805095284 -0.1
v 25.497826350858755 -40.254971483667696 0
v 25.497826350858755 -40.254971483667696 -0.1
v 23.278394709712853 -40.25436300362166 0
v 23.278394709712853 -40.25436300362166 -0.1
v 18.56210247227781 -40.253069983523844 0
v 18.56210247227781 -40.253069983523844 -0.1
v 18.563142182132463 -36.46072713829784 0
v 18.563142182132463 -36.46072713829784 -0.1
v 18.563836640408997 -33.92768980625803 0
v 18.563836640408997 -33.92768980625803 -0.1
v 15.845032880005267 -33.92694441820164 0
v 15.845032880005267 -33.92694441820164 -0.1
v 14.18045914914584 -33.92648805816712 0
v 14.18045914914584 -33.92648805816712 -0.1
v 13.847544402973954 -33.92639678616022 0
v 13.847544402973954 -33.92639678616022 -0.1
v 11.073254851541575 -33.92563618610267 0
v 11.073254851541575 -33.92563618610267 -0.1
v 9.408681120682148 -33.92517982606815 0
v 9.408681120682148 -33.92517982606815 -0.1
v 9.075766374510263 -33.92508855406125 0
v 9.075766374510263 -33.92508855406125 -0.1
v 6.967306315421656 -33.924510498017526 0
v 6.967306315421656 -33.924510498017526 -0.1
v 6.967336739423957 -33.81353891596022 0
v 6.967336739423957 -33.81353891596022 -0.1
v 6.96795582223479 -31.555433678467356 0
v 6.96795582223479 -31.555433678467356 -0.1
v 6.968142975484948 -30.872791991441904 0
v 6.968142975484948 -30.872791991441904 -0.1
v 13.182551570693475 -30.87449573557079 0
v 13.182551570693475 -30.87449573557079 -0.1
v 13.183281746748712 -28.211177766195707 0
v 13.183281746748712 -28.211177766195707 -0.1
v 13.183738106783235 -26.54660403533628 0
v 13.183738106783235 -26.54660403533628 -0.1
v 13.18387501479359 -26.047231916078452 0
v 13.18387501479359 -26.047231916078452 -0.1
v 13.184529130843075 -23.661342901846606 0
v 13.184529130843075 -23.661342901846606 -0.1
v 13.184985490877596 -21.99676917098718 0
v 13.184985490877596 -21.99676917098718 -0.1
v 13.185168034891406 -21.330939678643407 0
v 13.185168034891406 -21.330939678643407 -0.1
v 13.185898210946643 -18.667621709268328 0
v 13.185898210946643 -18.667621709268328 -0.1
v 13.186354570981166 -17.003047978408897 0
v 13.186354570981166 -17.003047978408897 -0.1
v 13.186461054989222 -16.614647441208366 0
v 13.186461054989222 -16.614647441208366 -0.1
v 13.187160807042156 -14.062301053890579 0
v 13.187160807042156 -14.062301053890579 -0.1
v 13.187617167076679 -12.397727323031152 0
v 13.187617167076679 -12.397727323031152 -0.1
v 13.187738863085885 -11.953840994801968 0
v 13.187738863085885 -11.953840994801968 -0.1
v 13.188484251142272 -9.23503723439824 0
v 13.188484251142272 -9.23503723439824 -0.1
v 13.188940611176797 -7.570463503538813 0
v 13.188940611176797 -7.570463503538813 -0.1
v 13.18904709518485 -7.182062966338279 0
v 13.18904709518485 -7.182062966338279 -0.1
vt 15.242021363244811 -7.182625810380857 0
vt 15.241914879236758 -7.57102634758139 0
vt 15.241458519202235 -9.235600078440818 0
vt 15.240713131145847 -11.954403838844549 0
vt 15.24059143513664 -12.398290167073728 0
vt 15.240135075102117 -14.062863897933155 0
vt 15.23935926304343 -16.892639240394182 0
vt 15.23840090697093 -20.388244075198976 0
vt 16.309498616987945 -20.388537727669192 0
vt 17.597323826762853 -20.3888907982159 0
vt 18.734005741775725 -20.389202431271478 0
vt 20.67600842777839 -20.389734851311754 0
vt 21.286352129093515 -20.389902183324413 0
vt 21.285743649047486 -22.609333824470312 0
vt 19.12179779893023 -22.60874055642543 0
vt 17.901110396299984 -22.608405892400114 0
vt 15.903621919268668 -22.60785826035869 0
vt 15.2377924269249 -22.60767571634488 0
vt 15.236864494854702 -25.992308969092377 0
vt 15.236712374843195 -26.547166879378857 0
vt 15.236256014808673 -28.211740610238284 0
vt 15.235525838753436 -30.875058579613366 0
vt 21.28347706087602 -30.8767166877388 0
vt 21.893820762191144 -30.876884019751458 0
vt 23.55839449305057 -30.87734037978598 0
vt 25.500397179053234 -30.877872799826257 0
vt 25.49927909696865 -34.95607844043186 0
vt 25.499126976957147 -35.51093635071833 0
vt 25.498746676928373 -36.89808112643452 0
vt 25.49870104092492 -37.06453849952047 0
vt 25.498320740896155 -38.45168327523665 0
vt 25.497940440867385 -39.83882805095284 0
vt 25.497826350858755 -40.254971483667696 0
vt 23.278394709712853 -40.25436300362166 0
vt 18.56210247227781 -40.253069983523844 0
vt 18.563142182132463 -36.46072713829784 0
vt 18.563836640408997 -33.92768980625803 0
vt 15.845032880005267 -33.92694441820164 0
vt 14.18045914914584 -33.92648805816712 0
vt 13.847544402973954 -33.92639678616022 0
vt 11.073254851541575 -33.92563618610267 0
vt 9.408681120682148 -33.92517982606815 0
vt 9.075766374510263 -33.92508855406125 0
vt 6.967306315421656 -33.924510498017526 0
vt 6.967336739423957 -33.81353891596022 0
vt 6.96795582223479 -31.555433678467356 0
vt 6.968142975484948 -30.872791991441904 0
vt 13.182551570693475 -30.87449573557079 0
vt 13.183281746748712 -28.211177766195707 0
vt 13.183738106783235 -26.54660403533628 0
vt 13.18387501479359 -26.047231916078452 0
vt 13.184529130843075 -23.661342901846606 0
vt 13.184985490877596 -21.99676917098718 0
vt 13.185168034891406 -21.330939678643407 0
vt 13.185898210946643 -18.667621709268328 0
vt 13.186354570981166 -17.003047978408897 0
vt 13.186461054989222 -16.614647441208366 0
vt 13.187160807042156 -14.062301053890579 0
vt 13.187617167076679 -12.397727323031152 0
vt 13.187738863085885 -11.953840994801968 0
vt 13.188484251142272 -9.23503723439824 0
vt 13.188940611176797 -7.570463503538813 0
vt 13.18904709518485 -7.182062966338279 0
vn 0 0 1
vn 0 0 -1
usemtl floor_7
s off
f 125/63/1 123/62/1 1/1/1
f 2/1/2 124/62/2 126/63/2
f 1/1/1 123/62/1 3/2/1
f 4/2/2 124/62/2 2/1/2
f 25/13/1 23/12/1 27/14/1
f 28/14/2 24/12/2 26/13/2
f 51/26/1 49/25/1 53/27/1
f 54/27/2 50/25/2 52/26/2
f 69/35/1 67/34/1 71/36/1
f 72/36/2 68/34/2 70/35/2
f 87/44/1 85/43/1 89/45/1
f 90/45/2 86/43/2 88/44/2
f 89/45/1 85/43/1 91/46/1
f 92/46/2 86/43/2 90/45/2
f 91/46/1 85/43/1 83/42/1
f 84/42/2 86/43/2 92/46/2
f 91/46/1 83/42/1 93/47/1
f 94/47/2 84/42/2 92/46/2
f 93/47/1 83/42/1 95/48/1
f 96/48/2 84/42/2 94/47/2
f 123/62/1 121/61/1 5/3/1
f 6/3/2 122/61/2 124/62/2
f 123/62/1 5/3/1 3/2/1
f 4/2/2 6/3/2 124/62/2
f 5/3/1 121/61/1 119/60/1
f 120/60/2 122/61/2 6/3/2
f 5/3/1 119/60/1 7/4/1
f 8/4/2 120/60/2 6/3/2
f 7/4/1 119/60/1 9/5/1
f 10/5/2 120/60/2 8/4/2
f 9/5/1 119/60/1 117/59/1
f 118/59/2 120/60/2 10/5/2
f 9/5/1 117/59/1 11/6/1
f 12/6/2 118/59/2 10/5/2
f 11/6/1 117/59/1 115/58/1
f 116/58/2 118/59/2 12/6/2
f 11/6/1 115/58/1 113/57/1
f 114/57/2 116/58/2 12/6/2
f 11/6/1 113/57/1 13/7/1
f 14/7/2 114/57/2 12/6/2
f 23/12/1 21/11/1 29/15/1
f 30/15/2 22/11/2 24/12/2
f 23/12/1 29/15/1 27/14/1
f 28/14/2 30/15/2 24/12/2
f 49/25/1 47/24/1 53/27/1
f 54/27/2 48/24/2 50/25/2
f 53/27/1 47/24/1 73/37/1
f 74/37/2 48/24/2 54/27/2
f 53/27/1 73/37/1 71/36/1
f 72/36/2 74/37/2 54/27/2
f 53/27/1 71/36/1 55/28/1
f 56/28/2 72/36/2 54/27/2
f 55/28/1 71/36/1 57/29/1
f 58/29/2 72/36/2 56/28/2
f 57/29/1 71/36/1 59/30/1
f 60/30/2 72/36/2 58/29/2
f 59/30/1 71/36/1 67/34/1
f 68/34/2 72/36/2 60/30/2
f 59/30/1 67/34/1 61/31/1
f 62/31/2 68/34/2 60/30/2
f 61/31/1 67/34/1 63/32/1
f 64/32/2 68/34/2 62/31/2
f 63/32/1 67/34/1 65/33/1
f 66/33/2 68/34/2 64/32/2
f 77/39/1 75/38/1 43/22/1
f 44/22/2 76/38/2 78/39/2
f 77/39/1 43/22/1 95/48/1
f 96/48/2 44/22/2 78/39/2
f 77/39/1 95/48/1 79/40/1
f 80/40/2 96/48/2 78/39/2
f 79/40/1 95/48/1 81/41/1
f 82/41/2 96/48/2 80/40/2
f 81/41/1 95/48/1 83/42/1
f 84/42/2 96/48/2 82/41/2
f 95/48/1 43/22/1 97/49/1
f 98/49/2 44/22/2 96/48/2
f 97/49/1 43/22/1 41/21/1
f 42/21/2 44/22/2 98/49/2
f 97/49/1 41/21/1 99/50/1
f 100/50/2 42/21/2 98/49/2
f 99/50/1 41/21/1 39/20/1
f 40/20/2 42/21/2 100/50/2
f 99/50/1 39/20/1 101/51/1
f 102/51/2 40/20/2 100/50/2
f 101/51/1 39/20/1 37/19/1
f 38/19/2 40/20/2 102/51/2
f 101/51/1 37/19/1 103/52/1
f 104/52/2 38/19/2 102/51/2
f 103/52/1 37/19/1 35/18/1
f 36/18/2 38/19/2 104/52/2
f 103/52/1 35/18/1 105/53/1
f 106/53/2 36/18/2 104/52/2
f 105/53/1 35/18/1 107/54/1
f 108/54/2 36/18/2 106/53/2
f 107/54/1 35/18/1 15/8/1
f 16/8/2 36/18/2 108/54/2
f 107/54/1 15/8/1 109/55/1
f 110/55/2 16/8/2 108/54/2
f 109/55/1 15/8/1 13/7/1
f 14/7/2 16/8/2 110/55/2
f 109/55/1 13/7/1 111/56/1
f 112/56/2 14/7/2 110/55/2
f 111/56/1 13/7/1 113/57/1
f 114/57/2 14/7/2 112/56/2
f 21/11/1 19/10/1 31/16/1
f 32/16/2 20/10/2 22/11/2
f 21/11/1 31/16/1 29/15/1
f 30/15/2 32/16/2 22/11/2
f 45/23/1 43/22/1 73/37/1
f 74/37/2 44/22/2 46/23/2
f 45/23/1 73/37/1 47/24/1
f 48/24/2 74/37/2 46/23/2
f 73/37/1 43/22/1 75/38/1
f 76/38/2 44/22/2 74/37/2
f 35/18/1 33/17/1 15/8/1
f 16/8/2 34/17/2 36/18/2
f 15/8/1 33/17/1 17/9/1
f 18/9/2 34/17/2 16/8/2
f 17/9/1 33/17/1 31/16/1
f 32/16/2 34/17/2 18/9/2
f 17/9/1 31/16/1 19/10/1
f 20/10/2 32/16/2 18/9/2
