# The Great Editor v0.0.1
mtllib floor_8.mtl
o floor_8
v 15.23935926304343 -16.892639240394182 0
v 15.23935926304343 -16.892639240394182 -0.1
v 17.598282182835348 -16.893285963411103 0
v 17.598282182835348 -16.893285963411103 -0.1
v 17.597323826762853 -20.3888907982159 0
v 17.597323826762853 -20.3888907982159 -0.1
v 16.309498616987945 -20.388537727669192 0
v 16.309498616987945 -20.388537727669192 -0.1
v 15.23840090697093 -20.388244075198976 0
v 15.23840090697093 -20.388244075198976 -0.1
vt 15.23935926304343 -16.892639240394182 0
vt 17.598282182835348 -16.893285963411103 0
vt 17.597323826762853 -20.3888907982159 0
vt 16.309498616987945 -20.388537727669192 0
vt 15.23840090697093 -20.388244075198976 0
vn 0 0 1
vn 0 0 -1
usemtl floor_8
s off
f 1/1/1 9/5/1 7/4/1
f 8/4/2 10/5/2 2/1/2
f 1/1/1 7/4/1 3/2/1
f 4/2/2 8/4/2 2/1/2
f 3/2/1 7/4/1 5/3/1
f 6/3/2 8/4/2 4/2/2
