# The Great Editor v0.0.1
mtllib floor_2.mtl
o floor_2
v 7.076952456427624 -19.53901472263808 0
v 7.076952456427624 -19.53901472263808 -0.1
v 6.950447059252144 -8.007368471745528 0
v 6.950447059252144 -8.007368471745528 -0.1
v 7.163813556600929 -7.39761468456741 0
v 7.163813556600929 -7.39761468456741 -0.1
v 7.682084787634984 -7.1384790690503825 0
v 7.682084787634984 -7.1384790690503825 -0.1
v 21.404022767705296 -7.132799689423666 0
v 21.404022767705296 -7.132799689423666 -0.1
v 21.38592670516919 -16.918649187217618 0
v 21.38592670516919 -16.918649187217618 -0.1
v 15.322131029993784 -16.97354985694254 0
v 15.322131029993784 -16.97354985694254 -0.1
v 15.322131029993784 -19.593915392363 0
v 15.322131029993784 -19.593915392363 -0.1
vt 7.076952456427624 -19.53901472263808 0
vt 6.950447059252144 -8.007368471745528 0
vt 7.163813556600929 -7.39761468456741 0
vt 7.682084787634984 -7.1384790690503825 0
vt 21.404022767705296 -7.132799689423666 0
vt 21.38592670516919 -16.918649187217618 0
vt 15.322131029993784 -16.97354985694254 0
vt 15.322131029993784 -19.593915392363 0
vn 0 0 1
vn 0 0 -1
usemtl floor_2
s off
f 3/2/1 1/1/1 13/7/1
f 14/7/2 2/1/2 4/2/2
f 3/2/1 13/7/1 7/4/1
f 8/4/2 14/7/2 4/2/2
f 3/2/1 7/4/1 5/3/1
f 6/3/2 8/4/2 4/2/2
f 7/4/1 13/7/1 9/5/1
f 10/5/2 14/7/2 8/4/2
f 9/5/1 13/7/1 11/6/1
f 12/6/2 14/7/2 10/5/2
f 15/8/1 13/7/1 1/1/1
f 2/1/2 14/7/2 16/8/2
