# The Great Editor v0.0.1
mtllib floor_3.mtl
o floor_3
v 26.695088732492795 -40.261289214367764 0
v 26.695088732492795 -40.261289214367764 -0.1
v 32.833774266471465 -40.20148868770999 0
v 32.833774266471465 -40.20148868770999 -0.1
v 32.77196925288662 -34.26185984162847 0
v 32.77196925288662 -34.26185984162847 -0.1
v 32.810110184693485 -26.11362048306342 0
v 32.810110184693485 -26.11362048306342 -0.1
v 30.9197119718833 -26.113843203833095 0
v 30.9197119718833 -26.113843203833095 -0.1
v 24.665879799982584 -26.168465472595926 0
v 24.665879799982584 -26.168465472595926 -0.1
v 21.34477904297171 -26.124144039430572 0
v 21.34477904297171 -26.124144039430572 -0.1
v 21.38592670516919 -16.918649187217618 0
v 21.38592670516919 -16.918649187217618 -0.1
v 15.322131029993784 -16.97354985694254 0
v 15.322131029993784 -16.97354985694254 -0.1
v 15.322131029993784 -19.593915392363 0
v 15.322131029993784 -19.593915392363 -0.1
v 7.076952456427624 -19.53901472263808 0
v 7.076952456427624 -19.53901472263808 -0.1
v 7.119380763050739 -30.65601058058793 0
v 7.119380763050739 -30.65601058058793 -0.1
v 8.201915064056765 -31.1316307842292 0
v 8.201915064056765 -31.1316307842292 -0.1
v 9.258279674625962 -31.96850407628354 0
v 9.258279674625962 -31.96850407628354 -0.1
v 9.916809310362936 -32.62703371202052 0
v 9.916809310362936 -32.62703371202052 -0.1
v 11.590500214279206 -34.972951579008786 0
v 11.590500214279206 -34.972951579008786 -0.1
v 12.26278285754362 -36.53695250386004 0
v 12.26278285754362 -36.53695250386004 -0.1
v 12.633167497513382 -37.936307099728964 0
v 12.633167497513382 -37.936307099728964 -0.1
v 12.756666164298247 -40.40572363350209 0
v 12.756666164298247 -40.40572363350209 -0.1
v 15.582458687729547 -25.620883702171646 0
v 15.582458687729547 -25.620883702171646 -0.1
v 15.582458687729547 -22.82088370217165 0
v 15.582458687729547 -22.82088370217165 -0.1
v 18.366468308668818 -17.531265422387037 0
v 18.366468308668818 -17.531265422387037 -0.1
v 21.166468308668815 -17.531265422387037 0
v 21.166468308668815 -17.531265422387037 -0.1
v 21.166468308668815 -20.331265422387034 0
v 21.166468308668815 -20.331265422387034 -0.1
v 21.37013290246688 -20.452015646172153 0
v 21.37013290246688 -20.452015646172153 -0.1
v 18.382458687729546 -25.620883702171646 0
v 18.382458687729546 -25.620883702171646 -0.1
v 18.382458687729546 -22.82088370217165 0
v 18.382458687729546 -22.82088370217165 -0.1
v 18.366468308668818 -20.331265422387034 0
v 18.366468308668818 -20.331265422387034 -0.1
v 21.36916135889779 -20.66936795360133 0
v 21.36916135889779 -20.66936795360133 -0.1
vt 26.695088732492795 -40.261289214367764 0
vt 32.833774266471465 -40.20148868770999 0
vt 32.77196925288662 -34.26185984162847 0
vt 32.810110184693485 -26.11362048306342 0
vt 30.9197119718833 -26.113843203833095 0
vt 24.665879799982584 -26.168465472595926 0
vt 21.34477904297171 -26.124144039430572 0
vt 21.38592670516919 -16.918649187217618 0
vt 15.322131029993784 -16.97354985694254 0
vt 15.322131029993784 -19.593915392363 0
vt 7.076952456427624 -19.53901472263808 0
vt 7.119380763050739 -30.65601058058793 0
vt 8.201915064056765 -31.1316307842292 0
vt 9.258279674625962 -31.96850407628354 0
vt 9.916809310362936 -32.62703371202052 0
vt 11.590500214279206 -34.972951579008786 0
vt 12.26278285754362 -36.53695250386004 0
vt 12.633167497513382 -37.936307099728964 0
vt 12.756666164298247 -40.40572363350209 0
vt 15.582458687729547 -25.620883702171646 0
vt 15.582458687729547 -22.82088370217165 0
vt 18.366468308668818 -17.531265422387037 0
vt 21.166468308668815 -17.531265422387037 0
vt 21.166468308668815 -20.331265422387034 0
vt 21.37013290246688 -20.452015646172153 0
vt 18.382458687729546 -25.620883702171646 0
vt 18.382458687729546 -22.82088370217165 0
vt 18.366468308668818 -20.331265422387034 0
vt 21.36916135889779 -20.66936795360133 0
vn 0 0 1
vn 0 0 -1
usemtl floor_3
s off
f 21/11/1 23/12/1 39/20/1
f 40/20/2 24/12/2 22/11/2
f 21/11/1 39/20/1 41/21/1
f 42/21/2 40/20/2 22/11/2
f 21/11/1 41/21/1 19/10/1
f 20/10/2 42/21/2 22/11/2
f 17/9/1 19/10/1 43/22/1
f 44/22/2 20/10/2 18/9/2
f 17/9/1 43/22/1 15/8/1
f 16/8/2 44/22/2 18/9/2
f 15/8/1 43/22/1 45/23/1
f 46/23/2 44/22/2 16/8/2
f 15/8/1 45/23/1 47/24/1
f 48/24/2 46/23/2 16/8/2
f 15/8/1 47/24/1 49/25/1
f 50/25/2 48/24/2 16/8/2
f 7/4/1 9/5/1 5/3/1
f 6/3/2 10/5/2 8/4/2
f 37/19/1 1/1/1 35/18/1
f 36/18/2 2/1/2 38/19/2
f 23/12/1 25/13/1 39/20/1
f 40/20/2 26/13/2 24/12/2
f 39/20/1 25/13/1 27/14/1
f 28/14/2 26/13/2 40/20/2
f 39/20/1 27/14/1 29/15/1
f 30/15/2 28/14/2 40/20/2
f 39/20/1 29/15/1 31/16/1
f 32/16/2 30/15/2 40/20/2
f 39/20/1 31/16/1 51/26/1
f 52/26/2 32/16/2 40/20/2
f 41/21/1 53/27/1 55/28/1
f 56/28/2 54/27/2 42/21/2
f 41/21/1 55/28/1 19/10/1
f 20/10/2 56/28/2 42/21/2
f 19/10/1 55/28/1 43/22/1
f 44/22/2 56/28/2 20/10/2
f 47/24/1 55/28/1 53/27/1
f 54/27/2 56/28/2 48/24/2
f 47/24/1 53/27/1 13/7/1
f 14/7/2 54/27/2 48/24/2
f 47/24/1 13/7/1 57/29/1
f 58/29/2 14/7/2 48/24/2
f 57/29/1 49/25/1 47/24/1
f 48/24/2 50/25/2 58/29/2
f 9/5/1 11/6/1 5/3/1
f 6/3/2 12/6/2 10/5/2
f 5/3/1 11/6/1 1/1/1
f 2/1/2 12/6/2 6/3/2
f 5/3/1 1/1/1 3/2/1
f 4/2/2 2/1/2 6/3/2
f 1/1/1 11/6/1 13/7/1
f 14/7/2 12/6/2 2/1/2
f 1/1/1 13/7/1 33/17/1
f 34/17/2 14/7/2 2/1/2
f 1/1/1 33/17/1 35/18/1
f 36/18/2 34/17/2 2/1/2
f 33/17/1 13/7/1 51/26/1
f 52/26/2 14/7/2 34/17/2
f 33/17/1 51/26/1 31/16/1
f 32/16/2 52/26/2 34/17/2
f 51/26/1 13/7/1 53/27/1
f 54/27/2 14/7/2 52/26/2
