# The Great Editor v0.0.1
mtllib floor_4.mtl
o floor_4
v 6.968142975484948 -30.872791991441904 0
v 6.968142975484948 -30.872791991441904 -0.1
v 6.96795582223479 -31.555433678467356 0
v 6.96795582223479 -31.555433678467356 -0.1
v 6.967336739423957 -33.81353891596022 0
v 6.967336739423957 -33.81353891596022 -0.1
v 6.967306315421656 -33.924510498017526 0
v 6.967306315421656 -33.924510498017526 -0.1
v 9.075766374510263 -33.92508855406125 0
v 9.075766374510263 -33.92508855406125 -0.1
v 9.408681120682148 -33.92517982606815 0
v 9.408681120682148 -33.92517982606815 -0.1
v 11.073254851541575 -33.92563618610267 0
v 11.073254851541575 -33.92563618610267 -0.1
v 13.847544402973954 -33.92639678616022 0
v 13.847544402973954 -33.92639678616022 -0.1
v 14.18045914914584 -33.92648805816712 0
v 14.18045914914584 -33.92648805816712 -0.1
v 15.845032880005267 -33.92694441820164 0
v 15.845032880005267 -33.92694441820164 -0.1
v 18.563836640408997 -33.92768980625803 0
v 18.563836640408997 -33.92768980625803 -0.1
v 18.563142182132463 -36.46072713829784 0
v 18.563142182132463 -36.46072713829784 -0.1
v 18.56210247227781 -40.253069983523844 0
v 18.56210247227781 -40.253069983523844 -0.1
v 13.845810234842766 -40.25177696342603 0
v 13.845810234842766 -40.25177696342603 -0.1
v 9.074032206379075 -40.25046873132706 0
v 9.074032206379075 -40.25046873132706 -0.1
v 2.415737282941369 -40.248643291188976 0
v 2.415737282941369 -40.248643291188976 -0.1
v 2.4174105878559518 -34.14526176382878 0
v 2.4174105878559518 -34.14526176382878 -0.1
v 2.417927811107079 -32.258689383063725 0
v 2.417927811107079 -32.258689383063725 -0.1
vt 6.968142975484948 -30.872791991441904 0
vt 6.96795582223479 -31.555433678467356 0
vt 6.967336739423957 -33.81353891596022 0
vt 6.967306315421656 -33.924510498017526 0
vt 9.075766374510263 -33.92508855406125 0
vt 9.408681120682148 -33.92517982606815 0
vt 11.073254851541575 -33.92563618610267 0
vt 13.847544402973954 -33.92639678616022 0
vt 14.18045914914584 -33.92648805816712 0
vt 15.845032880005267 -33.92694441820164 0
vt 18.563836640408997 -33.92768980625803 0
vt 18.563142182132463 -36.46072713829784 0
vt 18.56210247227781 -40.253069983523844 0
vt 13.845810234842766 -40.25177696342603 0
vt 9.074032206379075 -40.25046873132706 0
vt 2.415737282941369 -40.248643291188976 0
vt 2.4174105878559518 -34.14526176382878 0
vt 2.417927811107079 -32.258689383063725 0
vn 0 0 1
vn 0 0 -1
usemtl floor_4
s off
f 35/18/1 33/17/1 5/3/1
f 6/3/2 34/17/2 36/18/2
f 35/18/1 5/3/1 3/2/1
f 4/2/2 6/3/2 36/18/2
f 35/18/1 3/2/1 1/1/1
f 2/1/2 4/2/2 36/18/2
f 21/11/1 19/10/1 23/12/1
f 24/12/2 20/10/2 22/11/2
f 29/15/1 27/14/1 13/7/1
f 14/7/2 28/14/2 30/15/2
f 29/15/1 13/7/1 11/6/1
f 12/6/2 14/7/2 30/15/2
f 29/15/1 11/6/1 9/5/1
f 10/5/2 12/6/2 30/15/2
f 29/15/1 9/5/1 7/4/1
f 8/4/2 10/5/2 30/15/2
f 29/15/1 7/4/1 31/16/1
f 32/16/2 8/4/2 30/15/2
f 31/16/1 7/4/1 33/17/1
f 34/17/2 8/4/2 32/16/2
f 33/17/1 7/4/1 5/3/1
f 6/3/2 8/4/2 34/17/2
f 13/7/1 27/14/1 15/8/1
f 16/8/2 28/14/2 14/7/2
f 15/8/1 27/14/1 17/9/1
f 18/9/2 28/14/2 16/8/2
f 17/9/1 27/14/1 19/10/1
f 20/10/2 28/14/2 18/9/2
f 19/10/1 27/14/1 23/12/1
f 24/12/2 28/14/2 20/10/2
f 23/12/1 27/14/1 25/13/1
f 26/13/2 28/14/2 24/12/2
