# The Great Editor v0.0.1
mtllib floor_2.mtl
o floor_2
v 15.160909898050168 -7.116286386122846 0
v 15.160909898050168 -7.116286386122846 -0.1
v 15.1776432137427 -16.945023909938445 0
v 15.1776432137427 -16.945023909938445 -0.1
v 21.297436103813542 -16.92575428463187 0
v 21.297436103813542 -16.92575428463187 -0.1
v 21.30969315504949 -7.087045936222157 0
v 21.30969315504949 -7.087045936222157 -0.1
vt 15.160909898050168 -7.116286386122846 0
vt 15.1776432137427 -16.945023909938445 0
vt 21.297436103813542 -16.92575428463187 0
vt 21.30969315504949 -7.087045936222157 0
vn 0 0 1
vn 0 0 -1
usemtl floor_2
s off
f 1/1/1 3/2/1 5/3/1
f 6/3/2 4/2/2 2/1/2
f 1/1/1 5/3/1 7/4/1
f 8/4/2 6/3/2 2/1/2
