# The Great Editor v0.0.1
mtllib floor_5.mtl
o floor_5
v 15.28381120164472 -26.181804211156564 0
v 15.28381120164472 -26.181804211156564 -0.1
v 15.244034088605527 -31.084382452869956 0
v 15.244034088605527 -31.084382452869956 -0.1
v 29.378263184077785 -31.068012566822485 0
v 29.378263184077785 -31.068012566822485 -0.1
v 29.33008303381094 -26.226481658106415 0
v 29.33008303381094 -26.226481658106415 -0.1
v 21.349243280078547 -26.21090979923342 0
v 21.349243280078547 -26.21090979923342 -0.1
v 21.331428829540354 -22.768981581247825 0
v 21.331428829540354 -22.768981581247825 -0.1
v 19.123638291105834 -22.736614867651767 0
v 19.123638291105834 -22.736614867651767 -0.1
v 19.16500798939179 -26.188358623542207 0
v 19.16500798939179 -26.188358623542207 -0.1
vt 15.28381120164472 -26.181804211156564 0
vt 15.244034088605527 -31.084382452869956 0
vt 29.378263184077785 -31.068012566822485 0
vt 29.33008303381094 -26.226481658106415 0
vt 21.349243280078547 -26.21090979923342 0
vt 21.331428829540354 -22.768981581247825 0
vt 19.123638291105834 -22.736614867651767 0
vt 19.16500798939179 -26.188358623542207 0
vn 0 0 1
vn 0 0 -1
usemtl floor_5
s off
f 1/1/1 3/2/1 15/8/1
f 16/8/2 4/2/2 2/1/2
f 13/7/1 15/8/1 11/6/1
f 12/6/2 16/8/2 14/7/2
f 11/6/1 15/8/1 9/5/1
f 10/5/2 16/8/2 12/6/2
f 7/4/1 9/5/1 5/3/1
f 6/3/2 10/5/2 8/4/2
f 3/2/1 5/3/1 9/5/1
f 10/5/2 6/3/2 4/2/2
f 3/2/1 9/5/1 15/8/1
f 16/8/2 10/5/2 4/2/2
